<svg width="23" height="22" viewBox="0 0 23 22" fill="none" xmlns="http://www.w3.org/2000/svg">
<path d="M22.7412 20.5571L17.9668 15.9903C19.6528 14.0698 20.4987 11.6008 20.3279 9.09824C20.1571 6.59569 18.9829 4.2528 17.0502 2.55815C15.1174 0.863488 12.5754 -0.0521086 9.95403 0.00229249C7.33271 0.0566936 4.83453 1.07689 2.98045 2.85014C1.12637 4.62339 0.0595387 7.01279 0.00241751 9.52006C-0.0547037 12.0273 0.9023 14.4589 2.67386 16.3077C4.44542 18.1565 6.89476 19.2799 9.51112 19.4434C12.1275 19.607 14.7089 18.7982 16.7169 17.1857L21.4914 21.7524C21.6571 21.9109 21.8819 22 22.1163 22C22.3506 22 22.5754 21.911 22.7411 21.7525C22.9069 21.5939 23 21.379 23 21.1548C23 20.9306 22.9069 20.7156 22.7412 20.5571ZM1.79212 9.74387C1.79212 8.15573 2.28448 6.60325 3.20694 5.28275C4.1294 3.96226 5.44052 2.93306 6.97451 2.3253C8.50851 1.71755 10.1965 1.55853 11.8249 1.86836C13.4534 2.17819 14.9493 2.94296 16.1233 4.06595C17.2974 5.18893 18.097 6.61971 18.4209 8.17733C18.7448 9.73496 18.5786 11.3495 17.9432 12.8167C17.3078 14.284 16.2317 15.5381 14.8512 16.4204C13.4706 17.3027 11.8475 17.7737 10.1872 17.7737C7.96142 17.7713 5.82758 16.9245 4.25375 15.4191C2.67992 13.9138 1.79464 11.8728 1.79212 9.74387Z" fill="white"/>
</svg>
